<mxfile host="app.diagrams.net" agent="Mozilla/5.0 (Windows NT 10.0; Win64; x64) AppleWebKit/537.36 (KHTML, like Gecko) Chrome/134.0.0.0 YaBrowser/25.4.0.0 Safari/537.36" version="26.1.3">
  <diagram name="Страница — 1" id="M5nu3QDWu1KizVheTV6m">
    <mxGraphModel dx="2183" dy="799" grid="1" gridSize="10" guides="1" tooltips="1" connect="1" arrows="1" fold="1" page="1" pageScale="1" pageWidth="827" pageHeight="1169" math="0" shadow="0">
      <root>
        <mxCell id="0" />
        <mxCell id="1" parent="0" />
        <mxCell id="VuWLyhw8uN4OehV8k63K-1" value="" style="fillColor=#12AAB5;strokeColor=none;opacity=30;" vertex="1" parent="1">
          <mxGeometry x="200" y="320" width="660" height="105.5" as="geometry" />
        </mxCell>
        <mxCell id="VuWLyhw8uN4OehV8k63K-2" value="" style="fillColor=#AE4132;strokeColor=none;opacity=30;" vertex="1" parent="1">
          <mxGeometry x="1150" y="425" width="320" height="110" as="geometry" />
        </mxCell>
        <mxCell id="VuWLyhw8uN4OehV8k63K-3" value="" style="fillColor=#AE4132;strokeColor=none;opacity=30;" vertex="1" parent="1">
          <mxGeometry x="860" y="320" width="610" height="105" as="geometry" />
        </mxCell>
        <mxCell id="VuWLyhw8uN4OehV8k63K-4" value="" style="fillColor=#AE4132;strokeColor=none;opacity=30;" vertex="1" parent="1">
          <mxGeometry x="747" y="175.50000000000003" width="210" height="99.99999999999994" as="geometry" />
        </mxCell>
        <mxCell id="VuWLyhw8uN4OehV8k63K-5" value="" style="fillColor=#12AAB5;strokeColor=none;opacity=30;" vertex="1" parent="1">
          <mxGeometry x="650" y="425.5" width="210" height="234.5" as="geometry" />
        </mxCell>
        <mxCell id="VuWLyhw8uN4OehV8k63K-6" value="Лэндинг /" style="rounded=1;fillColor=#23445D;gradientColor=none;strokeColor=none;fontColor=#FFFFFF;fontStyle=1;fontFamily=Tahoma;fontSize=14" vertex="1" parent="1">
          <mxGeometry x="757" y="185.5" width="190" height="80" as="geometry" />
        </mxCell>
        <mxCell id="VuWLyhw8uN4OehV8k63K-7" value="Авторизация /auth" style="rounded=1;fillColor=#23445D;gradientColor=none;strokeColor=none;fontColor=#FFFFFF;fontStyle=1;fontFamily=Tahoma;fontSize=14" vertex="1" parent="1">
          <mxGeometry x="1271.9999999999998" y="335.5" width="190" height="80" as="geometry" />
        </mxCell>
        <mxCell id="VuWLyhw8uN4OehV8k63K-8" value="" style="edgeStyle=elbowEdgeStyle;elbow=vertical;strokeWidth=2;rounded=0" edge="1" parent="1" source="VuWLyhw8uN4OehV8k63K-6" target="VuWLyhw8uN4OehV8k63K-7">
          <mxGeometry x="337" y="215.5" width="100" height="100" as="geometry">
            <mxPoint x="337" y="315.5" as="sourcePoint" />
            <mxPoint x="437" y="215.5" as="targetPoint" />
          </mxGeometry>
        </mxCell>
        <mxCell id="VuWLyhw8uN4OehV8k63K-9" value="Список задач /problem" style="rounded=1;fillColor=#23445D;gradientColor=none;strokeColor=none;fontColor=#FFFFFF;fontStyle=1;fontFamily=Tahoma;fontSize=14" vertex="1" parent="1">
          <mxGeometry x="659.9999999999999" y="335.5" width="190" height="80" as="geometry" />
        </mxCell>
        <mxCell id="VuWLyhw8uN4OehV8k63K-10" value="Онлайн-компилятор&#xa;/playground" style="rounded=1;fillColor=#23445D;gradientColor=none;strokeColor=none;fontColor=#FFFFFF;fontStyle=1;fontFamily=Tahoma;fontSize=14" vertex="1" parent="1">
          <mxGeometry x="435" y="332.75" width="190" height="80" as="geometry" />
        </mxCell>
        <mxCell id="VuWLyhw8uN4OehV8k63K-11" value="Решение задачи&#xa;/problem/:hash" style="rounded=1;fillColor=#23445D;gradientColor=none;strokeColor=none;fontColor=#FFFFFF;fontStyle=1;fontFamily=Tahoma;fontSize=14" vertex="1" parent="1">
          <mxGeometry x="660" y="440" width="190" height="80" as="geometry" />
        </mxCell>
        <mxCell id="VuWLyhw8uN4OehV8k63K-12" value="Вход" style="rounded=1;fillColor=#23445D;gradientColor=none;strokeColor=none;fontColor=#FFFFFF;fontStyle=1;fontFamily=Tahoma;fontSize=14" vertex="1" parent="1">
          <mxGeometry x="1160" y="457.75" width="142" height="60" as="geometry" />
        </mxCell>
        <mxCell id="VuWLyhw8uN4OehV8k63K-13" value="" style="edgeStyle=elbowEdgeStyle;elbow=vertical;strokeWidth=2;rounded=0" edge="1" parent="1" source="VuWLyhw8uN4OehV8k63K-6" target="VuWLyhw8uN4OehV8k63K-9">
          <mxGeometry x="347" y="225.5" width="100" height="100" as="geometry">
            <mxPoint x="861.9999999999999" y="275.5" as="sourcePoint" />
            <mxPoint x="1466.9999999999998" y="345.5" as="targetPoint" />
          </mxGeometry>
        </mxCell>
        <mxCell id="VuWLyhw8uN4OehV8k63K-14" value="" style="edgeStyle=elbowEdgeStyle;elbow=vertical;strokeWidth=2;rounded=0" edge="1" parent="1" source="VuWLyhw8uN4OehV8k63K-6" target="VuWLyhw8uN4OehV8k63K-10">
          <mxGeometry x="-23" y="135.5" width="100" height="100" as="geometry">
            <mxPoint x="-23" y="235.5" as="sourcePoint" />
            <mxPoint x="77" y="135.5" as="targetPoint" />
          </mxGeometry>
        </mxCell>
        <mxCell id="VuWLyhw8uN4OehV8k63K-15" value="" style="edgeStyle=elbowEdgeStyle;elbow=horizontal;strokeWidth=2;rounded=0;entryX=0.5;entryY=0;entryDx=0;entryDy=0;exitX=0.5;exitY=1;exitDx=0;exitDy=0;" edge="1" parent="1" source="VuWLyhw8uN4OehV8k63K-11" target="VuWLyhw8uN4OehV8k63K-19">
          <mxGeometry x="-23" y="135.5" width="100" height="100" as="geometry">
            <mxPoint x="-25" y="235.5" as="sourcePoint" />
            <mxPoint x="590" y="575.5" as="targetPoint" />
            <Array as="points" />
          </mxGeometry>
        </mxCell>
        <mxCell id="VuWLyhw8uN4OehV8k63K-16" value="" style="edgeStyle=elbowEdgeStyle;elbow=vertical;strokeWidth=2;rounded=0" edge="1" parent="1" source="VuWLyhw8uN4OehV8k63K-9" target="VuWLyhw8uN4OehV8k63K-11">
          <mxGeometry x="-23" y="135.5" width="100" height="100" as="geometry">
            <mxPoint x="-25" y="235.5" as="sourcePoint" />
            <mxPoint x="75" y="135.5" as="targetPoint" />
          </mxGeometry>
        </mxCell>
        <mxCell id="VuWLyhw8uN4OehV8k63K-17" value="" style="edgeStyle=elbowEdgeStyle;elbow=vertical;strokeWidth=2;rounded=0;entryX=0.5;entryY=0;entryDx=0;entryDy=0;" edge="1" parent="1" source="VuWLyhw8uN4OehV8k63K-7" target="VuWLyhw8uN4OehV8k63K-20">
          <mxGeometry x="-23" y="135.5" width="100" height="100" as="geometry">
            <mxPoint x="-113" y="235.5" as="sourcePoint" />
            <mxPoint x="1367" y="455.5" as="targetPoint" />
          </mxGeometry>
        </mxCell>
        <mxCell id="VuWLyhw8uN4OehV8k63K-18" value="" style="edgeStyle=elbowEdgeStyle;elbow=vertical;strokeWidth=2;rounded=0" edge="1" parent="1" source="VuWLyhw8uN4OehV8k63K-7" target="VuWLyhw8uN4OehV8k63K-12">
          <mxGeometry x="-23" y="135.5" width="100" height="100" as="geometry">
            <mxPoint x="-113" y="235.5" as="sourcePoint" />
            <mxPoint x="-13" y="135.5" as="targetPoint" />
          </mxGeometry>
        </mxCell>
        <mxCell id="VuWLyhw8uN4OehV8k63K-19" value="Совместное решение&#xa;задачи&#xa;/problem/:hash/:userId" style="rounded=1;fillColor=#23445D;gradientColor=none;strokeColor=none;fontColor=#FFFFFF;fontStyle=1;fontFamily=Tahoma;fontSize=14" vertex="1" parent="1">
          <mxGeometry x="663.46" y="560" width="183.08" height="84.5" as="geometry" />
        </mxCell>
        <mxCell id="VuWLyhw8uN4OehV8k63K-20" value="Регистрация" style="rounded=1;fillColor=#23445D;gradientColor=none;strokeColor=none;fontColor=#FFFFFF;fontStyle=1;fontFamily=Tahoma;fontSize=14" vertex="1" parent="1">
          <mxGeometry x="1320" y="457.75" width="142" height="62.25" as="geometry" />
        </mxCell>
        <mxCell id="VuWLyhw8uN4OehV8k63K-21" value="Страница &#xa;&quot;Ошибка сервера&quot;&#xa;/500" style="rounded=1;fillColor=#23445D;gradientColor=none;strokeColor=none;fontColor=#FFFFFF;fontStyle=1;fontFamily=Tahoma;fontSize=14" vertex="1" parent="1">
          <mxGeometry x="869.9999999999999" y="335.5" width="190" height="80" as="geometry" />
        </mxCell>
        <mxCell id="VuWLyhw8uN4OehV8k63K-22" value="" style="edgeStyle=elbowEdgeStyle;elbow=vertical;strokeWidth=2;rounded=0;exitX=0.5;exitY=1;exitDx=0;exitDy=0;entryX=0.5;entryY=0;entryDx=0;entryDy=0;" edge="1" parent="1" source="VuWLyhw8uN4OehV8k63K-6" target="VuWLyhw8uN4OehV8k63K-21">
          <mxGeometry x="347" y="225.5" width="100" height="100" as="geometry">
            <mxPoint x="1165" y="256" as="sourcePoint" />
            <mxPoint x="970" y="325" as="targetPoint" />
          </mxGeometry>
        </mxCell>
        <mxCell id="VuWLyhw8uN4OehV8k63K-23" value="Страница &quot;Не найдено&quot; &#xa;/404" style="rounded=1;fillColor=#23445D;gradientColor=none;strokeColor=none;fontColor=#FFFFFF;fontStyle=1;fontFamily=Tahoma;fontSize=14" vertex="1" parent="1">
          <mxGeometry x="1070" y="335.5" width="190" height="80" as="geometry" />
        </mxCell>
        <mxCell id="VuWLyhw8uN4OehV8k63K-24" value="" style="edgeStyle=elbowEdgeStyle;elbow=vertical;strokeWidth=2;rounded=0;exitX=0.5;exitY=1;exitDx=0;exitDy=0;entryX=0.5;entryY=0;entryDx=0;entryDy=0;" edge="1" parent="1" source="VuWLyhw8uN4OehV8k63K-6" target="VuWLyhw8uN4OehV8k63K-23">
          <mxGeometry x="347" y="225.5" width="100" height="100" as="geometry">
            <mxPoint x="1060" y="266.5" as="sourcePoint" />
            <mxPoint x="1153" y="335.5" as="targetPoint" />
          </mxGeometry>
        </mxCell>
        <mxCell id="VuWLyhw8uN4OehV8k63K-27" value="Общедоступные &#xa;страницы" style="fillColor=#AE4132;strokeColor=none;opacity=30;fontColor=#333333;fontSize=16;fontStyle=1" vertex="1" parent="1">
          <mxGeometry x="1190" y="188.12" width="172" height="77.38" as="geometry" />
        </mxCell>
        <mxCell id="VuWLyhw8uN4OehV8k63K-28" value="Страницы доступные &#xa;после авторизации" style="fillColor=#12AAB5;strokeColor=none;opacity=30;fontSize=16;fontStyle=1;fontColor=#333333;" vertex="1" parent="1">
          <mxGeometry x="420" y="185.5" width="200" height="82.88" as="geometry" />
        </mxCell>
        <mxCell id="VuWLyhw8uN4OehV8k63K-46" value="&lt;font style=&quot;font-size: 40px;&quot;&gt;Лэндинг&lt;/font&gt;" style="text;html=1;align=center;verticalAlign=middle;whiteSpace=wrap;rounded=0;" vertex="1" parent="1">
          <mxGeometry x="1690" y="20" width="180" height="60" as="geometry" />
        </mxCell>
        <mxCell id="VuWLyhw8uN4OehV8k63K-47" value="Данные" style="swimlane;fontStyle=0;childLayout=stackLayout;horizontal=1;startSize=30;horizontalStack=0;resizeParent=1;resizeParentMax=0;resizeLast=0;collapsible=1;marginBottom=0;whiteSpace=wrap;html=1;" vertex="1" parent="1">
          <mxGeometry x="2150" y="20" width="250" height="90" as="geometry" />
        </mxCell>
        <mxCell id="VuWLyhw8uN4OehV8k63K-48" value="Информация об авторизованном пользователе" style="text;strokeColor=none;fillColor=none;align=left;verticalAlign=middle;spacingLeft=4;spacingRight=4;overflow=hidden;points=[[0,0.5],[1,0.5]];portConstraint=eastwest;rotatable=0;whiteSpace=wrap;html=1;" vertex="1" parent="VuWLyhw8uN4OehV8k63K-47">
          <mxGeometry y="30" width="250" height="60" as="geometry" />
        </mxCell>
        <mxCell id="VuWLyhw8uN4OehV8k63K-53" value="" style="group" vertex="1" connectable="0" parent="1">
          <mxGeometry x="1700" y="140" width="739.4" height="500" as="geometry" />
        </mxCell>
        <mxCell id="VuWLyhw8uN4OehV8k63K-29" value="" style="rounded=0;whiteSpace=wrap;html=1;movable=1;resizable=1;rotatable=1;deletable=1;editable=1;locked=0;connectable=1;container=0;" vertex="1" parent="VuWLyhw8uN4OehV8k63K-53">
          <mxGeometry width="739.4000000000002" height="500" as="geometry" />
        </mxCell>
        <mxCell id="VuWLyhw8uN4OehV8k63K-30" value="" style="rounded=0;whiteSpace=wrap;html=1;movable=1;resizable=1;rotatable=1;deletable=1;editable=1;locked=0;connectable=1;container=0;" vertex="1" parent="VuWLyhw8uN4OehV8k63K-53">
          <mxGeometry width="739.1391273668119" height="72.46376811594203" as="geometry" />
        </mxCell>
        <mxCell id="VuWLyhw8uN4OehV8k63K-31" value="User" style="rounded=0;whiteSpace=wrap;html=1;movable=1;resizable=1;rotatable=1;deletable=1;editable=1;locked=0;connectable=1;container=0;" vertex="1" parent="VuWLyhw8uN4OehV8k63K-53">
          <mxGeometry x="644.9351209377082" y="7.2463768115941996" width="65.21815829707164" height="21.73913043478261" as="geometry" />
        </mxCell>
        <mxCell id="VuWLyhw8uN4OehV8k63K-34" value="&lt;font style=&quot;font-size: 16px;&quot;&gt;ЛОГОТИП&lt;/font&gt;" style="rounded=1;whiteSpace=wrap;html=1;movable=1;resizable=1;rotatable=1;deletable=1;editable=1;locked=0;connectable=1;container=0;" vertex="1" parent="VuWLyhw8uN4OehV8k63K-53">
          <mxGeometry x="14.492924066015936" y="7.2463768115941996" width="108.69693049511942" height="37.862318840579704" as="geometry" />
        </mxCell>
        <mxCell id="VuWLyhw8uN4OehV8k63K-35" value="Главная" style="rounded=0;whiteSpace=wrap;html=1;movable=1;resizable=1;rotatable=1;deletable=1;editable=1;locked=0;connectable=1;container=0;" vertex="1" parent="VuWLyhw8uN4OehV8k63K-53">
          <mxGeometry x="144.92924066015917" y="50.72463768115939" width="57.971696264063695" height="21.73913043478261" as="geometry" />
        </mxCell>
        <mxCell id="VuWLyhw8uN4OehV8k63K-36" value="Задачи" style="rounded=0;whiteSpace=wrap;html=1;movable=1;resizable=1;rotatable=1;deletable=1;editable=1;locked=0;connectable=1;container=0;" vertex="1" parent="VuWLyhw8uN4OehV8k63K-53">
          <mxGeometry x="202.9009369242229" y="50.72463768115939" width="57.971696264063695" height="21.73913043478261" as="geometry" />
        </mxCell>
        <mxCell id="VuWLyhw8uN4OehV8k63K-37" value="Playground" style="rounded=0;whiteSpace=wrap;html=1;movable=1;resizable=1;rotatable=1;deletable=1;editable=1;locked=0;connectable=1;container=0;" vertex="1" parent="VuWLyhw8uN4OehV8k63K-53">
          <mxGeometry x="260.87" y="50.72" width="69.13" height="21.74" as="geometry" />
        </mxCell>
        <mxCell id="VuWLyhw8uN4OehV8k63K-40" value="Учетная запись" style="rounded=0;whiteSpace=wrap;html=1;movable=1;resizable=1;rotatable=1;deletable=1;editable=1;locked=0;connectable=1;container=0;" vertex="1" parent="VuWLyhw8uN4OehV8k63K-53">
          <mxGeometry x="330" y="50.72" width="91.16" height="21.74" as="geometry" />
        </mxCell>
        <mxCell id="VuWLyhw8uN4OehV8k63K-41" value="Problem1 X" style="rounded=0;whiteSpace=wrap;html=1;movable=1;resizable=1;rotatable=1;deletable=1;editable=1;locked=0;connectable=1;container=0;" vertex="1" parent="VuWLyhw8uN4OehV8k63K-53">
          <mxGeometry x="421.16" y="50.72" width="78.84" height="21.74" as="geometry" />
        </mxCell>
        <mxCell id="VuWLyhw8uN4OehV8k63K-42" value="Problem2 X" style="rounded=0;whiteSpace=wrap;html=1;movable=1;resizable=1;rotatable=1;deletable=1;editable=1;locked=0;connectable=1;container=0;" vertex="1" parent="VuWLyhw8uN4OehV8k63K-53">
          <mxGeometry x="500" y="50.72" width="70" height="21.74" as="geometry" />
        </mxCell>
        <mxCell id="VuWLyhw8uN4OehV8k63K-43" value="&lt;font style=&quot;font-size: 40px;&quot;&gt;Мотивирующий текст большим шрифтом&amp;nbsp;&lt;/font&gt;" style="rounded=0;whiteSpace=wrap;html=1;movable=1;resizable=1;rotatable=1;deletable=1;editable=1;locked=0;connectable=1;container=0;" vertex="1" parent="VuWLyhw8uN4OehV8k63K-53">
          <mxGeometry x="137.6827786271513" y="130.43478260869563" width="456.5271080795015" height="166.66666666666663" as="geometry" />
        </mxCell>
        <mxCell id="VuWLyhw8uN4OehV8k63K-44" value="&lt;font style=&quot;font-size: 24px;&quot;&gt;И текстом поменьше&lt;/font&gt;" style="rounded=0;whiteSpace=wrap;html=1;movable=1;resizable=1;rotatable=1;deletable=1;editable=1;locked=0;connectable=1;container=0;" vertex="1" parent="VuWLyhw8uN4OehV8k63K-53">
          <mxGeometry x="231.88678505625478" y="324.4565217391304" width="253.62617115527863" height="28.98550724637681" as="geometry" />
        </mxCell>
        <mxCell id="VuWLyhw8uN4OehV8k63K-45" value="&lt;font style=&quot;font-size: 17px;&quot;&gt;Начать работу!&lt;/font&gt;" style="rounded=1;whiteSpace=wrap;html=1;movable=1;resizable=1;rotatable=1;deletable=1;editable=1;locked=0;connectable=1;container=0;" vertex="1" parent="VuWLyhw8uN4OehV8k63K-53">
          <mxGeometry x="289.85848132031833" y="384.0579710144927" width="152.17570269316712" height="43.47826086956522" as="geometry" />
        </mxCell>
        <mxCell id="VuWLyhw8uN4OehV8k63K-54" value="&lt;span style=&quot;font-size: 40px;&quot;&gt;Авторизация&lt;/span&gt;" style="text;html=1;align=center;verticalAlign=middle;whiteSpace=wrap;rounded=0;" vertex="1" parent="1">
          <mxGeometry x="2555" y="24.5" width="180" height="60" as="geometry" />
        </mxCell>
        <mxCell id="VuWLyhw8uN4OehV8k63K-55" value="Данные" style="swimlane;fontStyle=0;childLayout=stackLayout;horizontal=1;startSize=30;horizontalStack=0;resizeParent=1;resizeParentMax=0;resizeLast=0;collapsible=1;marginBottom=0;whiteSpace=wrap;html=1;" vertex="1" parent="1">
          <mxGeometry x="2895" y="34.5" width="250" height="90" as="geometry" />
        </mxCell>
        <mxCell id="VuWLyhw8uN4OehV8k63K-56" value="Информация об авторизованном пользователе" style="text;strokeColor=none;fillColor=none;align=left;verticalAlign=middle;spacingLeft=4;spacingRight=4;overflow=hidden;points=[[0,0.5],[1,0.5]];portConstraint=eastwest;rotatable=0;whiteSpace=wrap;html=1;" vertex="1" parent="VuWLyhw8uN4OehV8k63K-55">
          <mxGeometry y="30" width="250" height="60" as="geometry" />
        </mxCell>
        <mxCell id="VuWLyhw8uN4OehV8k63K-58" value="" style="rounded=0;whiteSpace=wrap;html=1;movable=1;resizable=1;rotatable=1;deletable=1;editable=1;locked=0;connectable=1;container=0;" vertex="1" parent="1">
          <mxGeometry x="2525" y="144.5" width="739.4000000000002" height="500" as="geometry" />
        </mxCell>
        <mxCell id="VuWLyhw8uN4OehV8k63K-59" value="" style="rounded=0;whiteSpace=wrap;html=1;movable=1;resizable=1;rotatable=1;deletable=1;editable=1;locked=0;connectable=1;container=0;" vertex="1" parent="1">
          <mxGeometry x="2525" y="144.5" width="739.1391273668119" height="72.46376811594203" as="geometry" />
        </mxCell>
        <mxCell id="VuWLyhw8uN4OehV8k63K-60" value="User" style="rounded=0;whiteSpace=wrap;html=1;movable=1;resizable=1;rotatable=1;deletable=1;editable=1;locked=0;connectable=1;container=0;" vertex="1" parent="1">
          <mxGeometry x="3169.9351209377082" y="151.74637681159425" width="65.21815829707164" height="21.73913043478261" as="geometry" />
        </mxCell>
        <mxCell id="VuWLyhw8uN4OehV8k63K-61" value="&lt;font style=&quot;font-size: 16px;&quot;&gt;ЛОГОТИП&lt;/font&gt;" style="rounded=1;whiteSpace=wrap;html=1;movable=1;resizable=1;rotatable=1;deletable=1;editable=1;locked=0;connectable=1;container=0;" vertex="1" parent="1">
          <mxGeometry x="2539.492924066016" y="151.74637681159425" width="108.69693049511942" height="37.862318840579704" as="geometry" />
        </mxCell>
        <mxCell id="VuWLyhw8uN4OehV8k63K-62" value="Главная" style="rounded=0;whiteSpace=wrap;html=1;movable=1;resizable=1;rotatable=1;deletable=1;editable=1;locked=0;connectable=1;container=0;" vertex="1" parent="1">
          <mxGeometry x="2669.929240660159" y="195.22463768115938" width="57.971696264063695" height="21.73913043478261" as="geometry" />
        </mxCell>
        <mxCell id="VuWLyhw8uN4OehV8k63K-63" value="Задачи" style="rounded=0;whiteSpace=wrap;html=1;movable=1;resizable=1;rotatable=1;deletable=1;editable=1;locked=0;connectable=1;container=0;" vertex="1" parent="1">
          <mxGeometry x="2727.900936924223" y="195.22463768115938" width="57.971696264063695" height="21.73913043478261" as="geometry" />
        </mxCell>
        <mxCell id="VuWLyhw8uN4OehV8k63K-64" value="Playground" style="rounded=0;whiteSpace=wrap;html=1;movable=1;resizable=1;rotatable=1;deletable=1;editable=1;locked=0;connectable=1;container=0;" vertex="1" parent="1">
          <mxGeometry x="2785.87" y="195.22000000000003" width="69.13" height="21.74" as="geometry" />
        </mxCell>
        <mxCell id="VuWLyhw8uN4OehV8k63K-65" value="Учетная запись" style="rounded=0;whiteSpace=wrap;html=1;movable=1;resizable=1;rotatable=1;deletable=1;editable=1;locked=0;connectable=1;container=0;" vertex="1" parent="1">
          <mxGeometry x="2855" y="195.22000000000003" width="91.16" height="21.74" as="geometry" />
        </mxCell>
        <mxCell id="VuWLyhw8uN4OehV8k63K-66" value="Problem1 X" style="rounded=0;whiteSpace=wrap;html=1;movable=1;resizable=1;rotatable=1;deletable=1;editable=1;locked=0;connectable=1;container=0;" vertex="1" parent="1">
          <mxGeometry x="2946.16" y="195.22000000000003" width="78.84" height="21.74" as="geometry" />
        </mxCell>
        <mxCell id="VuWLyhw8uN4OehV8k63K-67" value="Problem2 X" style="rounded=0;whiteSpace=wrap;html=1;movable=1;resizable=1;rotatable=1;deletable=1;editable=1;locked=0;connectable=1;container=0;" vertex="1" parent="1">
          <mxGeometry x="3025" y="195.22000000000003" width="70" height="21.74" as="geometry" />
        </mxCell>
        <mxCell id="VuWLyhw8uN4OehV8k63K-71" value="&lt;font style=&quot;font-size: 18px;&quot;&gt;Добро пожаловать !&lt;/font&gt;" style="text;html=1;align=center;verticalAlign=middle;whiteSpace=wrap;rounded=0;" vertex="1" parent="1">
          <mxGeometry x="2815.37" y="314.5" width="170.43" height="60" as="geometry" />
        </mxCell>
        <mxCell id="VuWLyhw8uN4OehV8k63K-72" value="" style="rounded=1;whiteSpace=wrap;html=1;" vertex="1" parent="1">
          <mxGeometry x="2760.58" y="374.5" width="280" height="205.5" as="geometry" />
        </mxCell>
        <mxCell id="VuWLyhw8uN4OehV8k63K-75" value="" style="rounded=1;whiteSpace=wrap;html=1;" vertex="1" parent="1">
          <mxGeometry x="2795.58" y="464.5" width="210" height="30" as="geometry" />
        </mxCell>
        <mxCell id="VuWLyhw8uN4OehV8k63K-76" value="" style="rounded=1;whiteSpace=wrap;html=1;" vertex="1" parent="1">
          <mxGeometry x="2795.58" y="414.5" width="210" height="30" as="geometry" />
        </mxCell>
        <mxCell id="VuWLyhw8uN4OehV8k63K-78" value="Войти" style="rounded=1;whiteSpace=wrap;html=1;" vertex="1" parent="1">
          <mxGeometry x="2795.58" y="514.5" width="210" height="30" as="geometry" />
        </mxCell>
        <mxCell id="VuWLyhw8uN4OehV8k63K-79" value="Имя пользователя" style="text;html=1;align=center;verticalAlign=middle;whiteSpace=wrap;rounded=0;" vertex="1" parent="1">
          <mxGeometry x="2778.87" y="389.5" width="139" height="30" as="geometry" />
        </mxCell>
        <mxCell id="VuWLyhw8uN4OehV8k63K-80" value="Пароль" style="text;html=1;align=center;verticalAlign=middle;whiteSpace=wrap;rounded=0;" vertex="1" parent="1">
          <mxGeometry x="2748.58" y="441.5" width="139" height="30" as="geometry" />
        </mxCell>
        <mxCell id="VuWLyhw8uN4OehV8k63K-81" value="&lt;font style=&quot;font-size: 40px;&quot;&gt;Список задач&lt;/font&gt;" style="text;html=1;align=center;verticalAlign=middle;whiteSpace=wrap;rounded=0;" vertex="1" parent="1">
          <mxGeometry x="1700" y="975" width="260" height="60" as="geometry" />
        </mxCell>
        <mxCell id="VuWLyhw8uN4OehV8k63K-84" value="" style="rounded=0;whiteSpace=wrap;html=1;movable=1;resizable=1;rotatable=1;deletable=1;editable=1;locked=0;connectable=1;container=0;" vertex="1" parent="1">
          <mxGeometry x="1700.26" y="1103.28" width="739.14" height="500.72" as="geometry" />
        </mxCell>
        <mxCell id="VuWLyhw8uN4OehV8k63K-150" value="" style="rounded=0;whiteSpace=wrap;html=1;movable=1;resizable=1;rotatable=1;deletable=1;editable=1;locked=0;connectable=1;container=0;" vertex="1" parent="1">
          <mxGeometry x="1700.26" y="1103.28" width="739.1391273668119" height="72.46376811594203" as="geometry" />
        </mxCell>
        <mxCell id="VuWLyhw8uN4OehV8k63K-86" value="User" style="rounded=0;whiteSpace=wrap;html=1;movable=1;resizable=1;rotatable=1;deletable=1;editable=1;locked=0;connectable=1;container=0;" vertex="1" parent="1">
          <mxGeometry x="2345.1951209377085" y="1110.5263768115942" width="65.21815829707164" height="21.73913043478261" as="geometry" />
        </mxCell>
        <mxCell id="VuWLyhw8uN4OehV8k63K-87" value="&lt;font style=&quot;font-size: 16px;&quot;&gt;ЛОГОТИП&lt;/font&gt;" style="rounded=1;whiteSpace=wrap;html=1;movable=1;resizable=1;rotatable=1;deletable=1;editable=1;locked=0;connectable=1;container=0;" vertex="1" parent="1">
          <mxGeometry x="1714.7529240660158" y="1110.5263768115942" width="108.69693049511942" height="37.862318840579704" as="geometry" />
        </mxCell>
        <mxCell id="VuWLyhw8uN4OehV8k63K-88" value="Главная" style="rounded=0;whiteSpace=wrap;html=1;movable=1;resizable=1;rotatable=1;deletable=1;editable=1;locked=0;connectable=1;container=0;" vertex="1" parent="1">
          <mxGeometry x="1845.189240660159" y="1154.0046376811595" width="57.971696264063695" height="21.73913043478261" as="geometry" />
        </mxCell>
        <mxCell id="VuWLyhw8uN4OehV8k63K-89" value="Задачи" style="rounded=0;whiteSpace=wrap;html=1;movable=1;resizable=1;rotatable=1;deletable=1;editable=1;locked=0;connectable=1;container=0;" vertex="1" parent="1">
          <mxGeometry x="1903.160936924223" y="1154.0046376811595" width="57.971696264063695" height="21.73913043478261" as="geometry" />
        </mxCell>
        <mxCell id="VuWLyhw8uN4OehV8k63K-90" value="Playground" style="rounded=0;whiteSpace=wrap;html=1;movable=1;resizable=1;rotatable=1;deletable=1;editable=1;locked=0;connectable=1;container=0;" vertex="1" parent="1">
          <mxGeometry x="1961.1299999999999" y="1154" width="69.13" height="21.74" as="geometry" />
        </mxCell>
        <mxCell id="VuWLyhw8uN4OehV8k63K-91" value="Учетная запись" style="rounded=0;whiteSpace=wrap;html=1;movable=1;resizable=1;rotatable=1;deletable=1;editable=1;locked=0;connectable=1;container=0;" vertex="1" parent="1">
          <mxGeometry x="2030.26" y="1154" width="91.16" height="21.74" as="geometry" />
        </mxCell>
        <mxCell id="VuWLyhw8uN4OehV8k63K-92" value="Problem1 X" style="rounded=0;whiteSpace=wrap;html=1;movable=1;resizable=1;rotatable=1;deletable=1;editable=1;locked=0;connectable=1;container=0;" vertex="1" parent="1">
          <mxGeometry x="2121.42" y="1154" width="78.84" height="21.74" as="geometry" />
        </mxCell>
        <mxCell id="VuWLyhw8uN4OehV8k63K-93" value="Problem2 X" style="rounded=0;whiteSpace=wrap;html=1;movable=1;resizable=1;rotatable=1;deletable=1;editable=1;locked=0;connectable=1;container=0;" vertex="1" parent="1">
          <mxGeometry x="2200.26" y="1154" width="70" height="21.74" as="geometry" />
        </mxCell>
        <mxCell id="VuWLyhw8uN4OehV8k63K-101" value="" style="rounded=0;whiteSpace=wrap;html=1;" vertex="1" parent="1">
          <mxGeometry x="1720.26" y="1203.28" width="200" height="380" as="geometry" />
        </mxCell>
        <mxCell id="VuWLyhw8uN4OehV8k63K-103" value="" style="rounded=0;whiteSpace=wrap;html=1;" vertex="1" parent="1">
          <mxGeometry x="1929.66" y="1203.28" width="490" height="70" as="geometry" />
        </mxCell>
        <mxCell id="VuWLyhw8uN4OehV8k63K-102" value="" style="rounded=0;whiteSpace=wrap;html=1;" vertex="1" parent="1">
          <mxGeometry x="1930.26" y="1283.28" width="490" height="300" as="geometry" />
        </mxCell>
        <mxCell id="VuWLyhw8uN4OehV8k63K-104" value="Задачи C++" style="rounded=1;whiteSpace=wrap;html=1;" vertex="1" parent="1">
          <mxGeometry x="1941.26" y="1208.28" width="149" height="60" as="geometry" />
        </mxCell>
        <mxCell id="VuWLyhw8uN4OehV8k63K-105" value="Задачи на массивы" style="rounded=1;whiteSpace=wrap;html=1;" vertex="1" parent="1">
          <mxGeometry x="2100.84" y="1208.28" width="149.42" height="60" as="geometry" />
        </mxCell>
        <mxCell id="VuWLyhw8uN4OehV8k63K-106" value="Рекурсия" style="rounded=1;whiteSpace=wrap;html=1;" vertex="1" parent="1">
          <mxGeometry x="2260.26" y="1208.28" width="150.15" height="60" as="geometry" />
        </mxCell>
        <mxCell id="VuWLyhw8uN4OehV8k63K-108" value="Название" style="rounded=1;whiteSpace=wrap;html=1;" vertex="1" parent="1">
          <mxGeometry x="1740.26" y="1222.28" width="160" height="30" as="geometry" />
        </mxCell>
        <mxCell id="VuWLyhw8uN4OehV8k63K-109" value="Сложность" style="rounded=1;whiteSpace=wrap;html=1;" vertex="1" parent="1">
          <mxGeometry x="1740.26" y="1272.28" width="160" height="30" as="geometry" />
        </mxCell>
        <mxCell id="VuWLyhw8uN4OehV8k63K-110" value="Язык" style="rounded=1;whiteSpace=wrap;html=1;" vertex="1" parent="1">
          <mxGeometry x="1740.26" y="1322.28" width="160" height="30" as="geometry" />
        </mxCell>
        <mxCell id="VuWLyhw8uN4OehV8k63K-111" value="Теги" style="rounded=1;whiteSpace=wrap;html=1;" vertex="1" parent="1">
          <mxGeometry x="1740.26" y="1372.28" width="160" height="30" as="geometry" />
        </mxCell>
        <mxCell id="VuWLyhw8uN4OehV8k63K-112" value="Статус" style="rounded=1;whiteSpace=wrap;html=1;" vertex="1" parent="1">
          <mxGeometry x="1740.26" y="1417.28" width="160" height="30" as="geometry" />
        </mxCell>
        <mxCell id="VuWLyhw8uN4OehV8k63K-121" value="" style="group" vertex="1" connectable="0" parent="1">
          <mxGeometry x="1941.26" y="1292.28" width="469" height="71" as="geometry" />
        </mxCell>
        <mxCell id="VuWLyhw8uN4OehV8k63K-113" value="" style="rounded=1;whiteSpace=wrap;html=1;" vertex="1" parent="VuWLyhw8uN4OehV8k63K-121">
          <mxGeometry width="469" height="71" as="geometry" />
        </mxCell>
        <mxCell id="VuWLyhw8uN4OehV8k63K-114" value="EASY" style="text;html=1;align=center;verticalAlign=middle;whiteSpace=wrap;rounded=0;" vertex="1" parent="VuWLyhw8uN4OehV8k63K-121">
          <mxGeometry x="9" y="10" width="40" height="21" as="geometry" />
        </mxCell>
        <mxCell id="VuWLyhw8uN4OehV8k63K-115" value="Even or Odd?" style="text;html=1;align=center;verticalAlign=middle;whiteSpace=wrap;rounded=0;" vertex="1" parent="VuWLyhw8uN4OehV8k63K-121">
          <mxGeometry x="67" y="10" width="92" height="21" as="geometry" />
        </mxCell>
        <mxCell id="VuWLyhw8uN4OehV8k63K-116" value="Математика" style="rounded=1;whiteSpace=wrap;html=1;" vertex="1" parent="VuWLyhw8uN4OehV8k63K-121">
          <mxGeometry x="9" y="41" width="80" height="20" as="geometry" />
        </mxCell>
        <mxCell id="VuWLyhw8uN4OehV8k63K-117" value="Условные операторы" style="rounded=1;whiteSpace=wrap;html=1;" vertex="1" parent="VuWLyhw8uN4OehV8k63K-121">
          <mxGeometry x="94.57999999999993" y="41" width="124.42" height="20" as="geometry" />
        </mxCell>
        <mxCell id="VuWLyhw8uN4OehV8k63K-118" value="JS" style="rounded=1;whiteSpace=wrap;html=1;" vertex="1" parent="VuWLyhw8uN4OehV8k63K-121">
          <mxGeometry x="419" y="10" width="35.06" height="31" as="geometry" />
        </mxCell>
        <mxCell id="VuWLyhw8uN4OehV8k63K-119" value="JAVA" style="rounded=1;whiteSpace=wrap;html=1;" vertex="1" parent="VuWLyhw8uN4OehV8k63K-121">
          <mxGeometry x="376.5500000000002" y="10" width="35.06" height="31" as="geometry" />
        </mxCell>
        <mxCell id="VuWLyhw8uN4OehV8k63K-120" value="C++" style="rounded=1;whiteSpace=wrap;html=1;" vertex="1" parent="VuWLyhw8uN4OehV8k63K-121">
          <mxGeometry x="329" y="10" width="35.06" height="31" as="geometry" />
        </mxCell>
        <mxCell id="VuWLyhw8uN4OehV8k63K-122" value="" style="group" vertex="1" connectable="0" parent="1">
          <mxGeometry x="1941.26" y="1373.28" width="469" height="71" as="geometry" />
        </mxCell>
        <mxCell id="VuWLyhw8uN4OehV8k63K-123" value="" style="rounded=1;whiteSpace=wrap;html=1;" vertex="1" parent="VuWLyhw8uN4OehV8k63K-122">
          <mxGeometry width="469" height="71" as="geometry" />
        </mxCell>
        <mxCell id="VuWLyhw8uN4OehV8k63K-124" value="EASY" style="text;html=1;align=center;verticalAlign=middle;whiteSpace=wrap;rounded=0;" vertex="1" parent="VuWLyhw8uN4OehV8k63K-122">
          <mxGeometry x="9" y="10" width="40" height="21" as="geometry" />
        </mxCell>
        <mxCell id="VuWLyhw8uN4OehV8k63K-125" value="Even or Odd?" style="text;html=1;align=center;verticalAlign=middle;whiteSpace=wrap;rounded=0;" vertex="1" parent="VuWLyhw8uN4OehV8k63K-122">
          <mxGeometry x="67" y="10" width="92" height="21" as="geometry" />
        </mxCell>
        <mxCell id="VuWLyhw8uN4OehV8k63K-126" value="Математика" style="rounded=1;whiteSpace=wrap;html=1;" vertex="1" parent="VuWLyhw8uN4OehV8k63K-122">
          <mxGeometry x="9" y="41" width="80" height="20" as="geometry" />
        </mxCell>
        <mxCell id="VuWLyhw8uN4OehV8k63K-127" value="Условные операторы" style="rounded=1;whiteSpace=wrap;html=1;" vertex="1" parent="VuWLyhw8uN4OehV8k63K-122">
          <mxGeometry x="94.57999999999993" y="41" width="124.42" height="20" as="geometry" />
        </mxCell>
        <mxCell id="VuWLyhw8uN4OehV8k63K-128" value="JS" style="rounded=1;whiteSpace=wrap;html=1;" vertex="1" parent="VuWLyhw8uN4OehV8k63K-122">
          <mxGeometry x="419" y="10" width="35.06" height="31" as="geometry" />
        </mxCell>
        <mxCell id="VuWLyhw8uN4OehV8k63K-129" value="JAVA" style="rounded=1;whiteSpace=wrap;html=1;" vertex="1" parent="VuWLyhw8uN4OehV8k63K-122">
          <mxGeometry x="376.5500000000002" y="10" width="35.06" height="31" as="geometry" />
        </mxCell>
        <mxCell id="VuWLyhw8uN4OehV8k63K-130" value="C++" style="rounded=1;whiteSpace=wrap;html=1;" vertex="1" parent="VuWLyhw8uN4OehV8k63K-122">
          <mxGeometry x="329" y="10" width="35.06" height="31" as="geometry" />
        </mxCell>
        <mxCell id="VuWLyhw8uN4OehV8k63K-131" value="" style="group" vertex="1" connectable="0" parent="1">
          <mxGeometry x="1941.26" y="1453.28" width="469" height="71" as="geometry" />
        </mxCell>
        <mxCell id="VuWLyhw8uN4OehV8k63K-132" value="" style="rounded=1;whiteSpace=wrap;html=1;" vertex="1" parent="VuWLyhw8uN4OehV8k63K-131">
          <mxGeometry width="469" height="71" as="geometry" />
        </mxCell>
        <mxCell id="VuWLyhw8uN4OehV8k63K-133" value="EASY" style="text;html=1;align=center;verticalAlign=middle;whiteSpace=wrap;rounded=0;" vertex="1" parent="VuWLyhw8uN4OehV8k63K-131">
          <mxGeometry x="9" y="10" width="40" height="21" as="geometry" />
        </mxCell>
        <mxCell id="VuWLyhw8uN4OehV8k63K-134" value="Even or Odd?" style="text;html=1;align=center;verticalAlign=middle;whiteSpace=wrap;rounded=0;" vertex="1" parent="VuWLyhw8uN4OehV8k63K-131">
          <mxGeometry x="67" y="10" width="92" height="21" as="geometry" />
        </mxCell>
        <mxCell id="VuWLyhw8uN4OehV8k63K-135" value="Математика" style="rounded=1;whiteSpace=wrap;html=1;" vertex="1" parent="VuWLyhw8uN4OehV8k63K-131">
          <mxGeometry x="9" y="41" width="80" height="20" as="geometry" />
        </mxCell>
        <mxCell id="VuWLyhw8uN4OehV8k63K-136" value="Условные операторы" style="rounded=1;whiteSpace=wrap;html=1;" vertex="1" parent="VuWLyhw8uN4OehV8k63K-131">
          <mxGeometry x="94.57999999999993" y="41" width="124.42" height="20" as="geometry" />
        </mxCell>
        <mxCell id="VuWLyhw8uN4OehV8k63K-137" value="JS" style="rounded=1;whiteSpace=wrap;html=1;" vertex="1" parent="VuWLyhw8uN4OehV8k63K-131">
          <mxGeometry x="419" y="10" width="35.06" height="31" as="geometry" />
        </mxCell>
        <mxCell id="VuWLyhw8uN4OehV8k63K-138" value="JAVA" style="rounded=1;whiteSpace=wrap;html=1;" vertex="1" parent="VuWLyhw8uN4OehV8k63K-131">
          <mxGeometry x="376.5500000000002" y="10" width="35.06" height="31" as="geometry" />
        </mxCell>
        <mxCell id="VuWLyhw8uN4OehV8k63K-139" value="C++" style="rounded=1;whiteSpace=wrap;html=1;" vertex="1" parent="VuWLyhw8uN4OehV8k63K-131">
          <mxGeometry x="329" y="10" width="35.06" height="31" as="geometry" />
        </mxCell>
        <mxCell id="VuWLyhw8uN4OehV8k63K-151" value="&lt;font style=&quot;font-size: 40px;&quot;&gt;Решение задачи&lt;/font&gt;" style="text;html=1;align=center;verticalAlign=middle;whiteSpace=wrap;rounded=0;" vertex="1" parent="1">
          <mxGeometry x="2510" y="960" width="330" height="90" as="geometry" />
        </mxCell>
        <mxCell id="VuWLyhw8uN4OehV8k63K-152" value="Данные" style="swimlane;fontStyle=0;childLayout=stackLayout;horizontal=1;startSize=30;horizontalStack=0;resizeParent=1;resizeParentMax=0;resizeLast=0;collapsible=1;marginBottom=0;whiteSpace=wrap;html=1;" vertex="1" parent="1">
          <mxGeometry x="2902.13" y="860" width="302.87" height="180" as="geometry" />
        </mxCell>
        <mxCell id="VuWLyhw8uN4OehV8k63K-153" value="Информация об авторизованном пользователе" style="text;strokeColor=none;fillColor=none;align=left;verticalAlign=middle;spacingLeft=4;spacingRight=4;overflow=hidden;points=[[0,0.5],[1,0.5]];portConstraint=eastwest;rotatable=0;whiteSpace=wrap;html=1;" vertex="1" parent="VuWLyhw8uN4OehV8k63K-152">
          <mxGeometry y="30" width="302.87" height="30" as="geometry" />
        </mxCell>
        <mxCell id="VuWLyhw8uN4OehV8k63K-225" value="Информация о задаче: название, описание, языки, шаблон кода" style="text;strokeColor=none;fillColor=none;align=left;verticalAlign=middle;spacingLeft=4;spacingRight=4;overflow=hidden;points=[[0,0.5],[1,0.5]];portConstraint=eastwest;rotatable=0;whiteSpace=wrap;html=1;" vertex="1" parent="VuWLyhw8uN4OehV8k63K-152">
          <mxGeometry y="60" width="302.87" height="60" as="geometry" />
        </mxCell>
        <mxCell id="VuWLyhw8uN4OehV8k63K-226" value="Прошлые результаты решения задачи" style="text;strokeColor=none;fillColor=none;align=left;verticalAlign=middle;spacingLeft=4;spacingRight=4;overflow=hidden;points=[[0,0.5],[1,0.5]];portConstraint=eastwest;rotatable=0;whiteSpace=wrap;html=1;" vertex="1" parent="VuWLyhw8uN4OehV8k63K-152">
          <mxGeometry y="120" width="302.87" height="30" as="geometry" />
        </mxCell>
        <mxCell id="VuWLyhw8uN4OehV8k63K-227" value="Результаты текущего решения (после запуска)" style="text;strokeColor=none;fillColor=none;align=left;verticalAlign=middle;spacingLeft=4;spacingRight=4;overflow=hidden;points=[[0,0.5],[1,0.5]];portConstraint=eastwest;rotatable=0;whiteSpace=wrap;html=1;" vertex="1" parent="VuWLyhw8uN4OehV8k63K-152">
          <mxGeometry y="150" width="302.87" height="30" as="geometry" />
        </mxCell>
        <object label="Данные" id="VuWLyhw8uN4OehV8k63K-170">
          <mxCell style="swimlane;fontStyle=0;childLayout=stackLayout;horizontal=1;startSize=30;horizontalStack=0;resizeParent=1;resizeParentMax=0;resizeLast=0;collapsible=1;marginBottom=0;whiteSpace=wrap;html=1;" vertex="1" parent="1">
            <mxGeometry x="2131.15" y="869.28" width="279" height="160" as="geometry">
              <mxRectangle x="2170" y="860" width="80" height="30" as="alternateBounds" />
            </mxGeometry>
          </mxCell>
        </object>
        <mxCell id="VuWLyhw8uN4OehV8k63K-171" value="Пользователь" style="text;strokeColor=none;fillColor=none;align=left;verticalAlign=middle;spacingLeft=4;spacingRight=4;overflow=hidden;points=[[0,0.5],[1,0.5]];portConstraint=eastwest;rotatable=0;whiteSpace=wrap;html=1;" vertex="1" parent="VuWLyhw8uN4OehV8k63K-170">
          <mxGeometry y="30" width="279" height="30" as="geometry" />
        </mxCell>
        <mxCell id="VuWLyhw8uN4OehV8k63K-172" value="Теги, языки, сложность, статусы" style="text;strokeColor=none;fillColor=none;align=left;verticalAlign=middle;spacingLeft=4;spacingRight=4;overflow=hidden;points=[[0,0.5],[1,0.5]];portConstraint=eastwest;rotatable=0;whiteSpace=wrap;html=1;" vertex="1" parent="VuWLyhw8uN4OehV8k63K-170">
          <mxGeometry y="60" width="279" height="30" as="geometry" />
        </mxCell>
        <mxCell id="VuWLyhw8uN4OehV8k63K-173" value="Подборки" style="text;strokeColor=none;fillColor=none;align=left;verticalAlign=middle;spacingLeft=4;spacingRight=4;overflow=hidden;points=[[0,0.5],[1,0.5]];portConstraint=eastwest;rotatable=0;whiteSpace=wrap;html=1;" vertex="1" parent="VuWLyhw8uN4OehV8k63K-170">
          <mxGeometry y="90" width="279" height="30" as="geometry" />
        </mxCell>
        <mxCell id="VuWLyhw8uN4OehV8k63K-175" value="Список задач: ссылка, название, сложность, теги, языки" style="text;strokeColor=none;fillColor=none;align=left;verticalAlign=middle;spacingLeft=4;spacingRight=4;overflow=hidden;points=[[0,0.5],[1,0.5]];portConstraint=eastwest;rotatable=0;whiteSpace=wrap;html=1;" vertex="1" parent="VuWLyhw8uN4OehV8k63K-170">
          <mxGeometry y="120" width="279" height="40" as="geometry" />
        </mxCell>
        <mxCell id="VuWLyhw8uN4OehV8k63K-176" value="&lt;font style=&quot;font-size: 8px;&quot;&gt;Регистрация&lt;/font&gt;" style="text;html=1;align=center;verticalAlign=middle;whiteSpace=wrap;rounded=0;" vertex="1" parent="1">
          <mxGeometry x="2850.58" y="554" width="100" height="15" as="geometry" />
        </mxCell>
        <mxCell id="VuWLyhw8uN4OehV8k63K-155" value="" style="rounded=0;whiteSpace=wrap;html=1;movable=1;resizable=1;rotatable=1;deletable=1;editable=1;locked=0;connectable=1;container=0;" vertex="1" parent="1">
          <mxGeometry x="2517.13" y="1100" width="739.4000000000002" height="500" as="geometry" />
        </mxCell>
        <mxCell id="VuWLyhw8uN4OehV8k63K-156" value="" style="rounded=0;whiteSpace=wrap;html=1;movable=1;resizable=1;rotatable=1;deletable=1;editable=1;locked=0;connectable=1;container=0;" vertex="1" parent="1">
          <mxGeometry x="2517.13" y="1100" width="739.1391273668119" height="72.46376811594203" as="geometry" />
        </mxCell>
        <mxCell id="VuWLyhw8uN4OehV8k63K-158" value="&lt;font style=&quot;font-size: 16px;&quot;&gt;Название&lt;/font&gt;" style="rounded=1;whiteSpace=wrap;html=1;movable=1;resizable=1;rotatable=1;deletable=1;editable=1;locked=0;connectable=1;container=0;" vertex="1" parent="1">
          <mxGeometry x="2615.91" y="1112.3" width="133.11" height="42.7" as="geometry" />
        </mxCell>
        <mxCell id="VuWLyhw8uN4OehV8k63K-177" value="&lt;font style=&quot;font-size: 30px;&quot;&gt;&amp;lt;--&lt;/font&gt;" style="rounded=1;whiteSpace=wrap;html=1;movable=1;resizable=1;rotatable=1;deletable=1;editable=1;locked=0;connectable=1;container=0;" vertex="1" parent="1">
          <mxGeometry x="2527.13" y="1112.14" width="60" height="37.86" as="geometry" />
        </mxCell>
        <mxCell id="VuWLyhw8uN4OehV8k63K-178" value="&lt;span style=&quot;font-size: 16px;&quot;&gt;Выбранный язык&lt;/span&gt;" style="rounded=1;whiteSpace=wrap;html=1;movable=1;resizable=1;rotatable=1;deletable=1;editable=1;locked=0;connectable=1;container=0;" vertex="1" parent="1">
          <mxGeometry x="3087.13" y="1119.88" width="144.42" height="35.12" as="geometry" />
        </mxCell>
        <mxCell id="VuWLyhw8uN4OehV8k63K-179" value="&lt;span style=&quot;font-size: 16px;&quot;&gt;Запустить&lt;/span&gt;" style="rounded=1;whiteSpace=wrap;html=1;movable=1;resizable=1;rotatable=1;deletable=1;editable=1;locked=0;connectable=1;container=0;" vertex="1" parent="1">
          <mxGeometry x="2902.5000000000005" y="1119.88" width="100.14" height="35.12" as="geometry" />
        </mxCell>
        <mxCell id="VuWLyhw8uN4OehV8k63K-180" value="&lt;span style=&quot;font-size: 16px;&quot;&gt;О&lt;/span&gt;&lt;span style=&quot;font-size: 16px; background-color: transparent; color: light-dark(rgb(0, 0, 0), rgb(255, 255, 255));&quot;&gt;флайн&lt;/span&gt;" style="rounded=1;whiteSpace=wrap;html=1;movable=1;resizable=1;rotatable=1;deletable=1;editable=1;locked=0;connectable=1;container=0;" vertex="1" parent="1">
          <mxGeometry x="2797.13" y="1119.88" width="100.14" height="35.12" as="geometry" />
        </mxCell>
        <mxCell id="VuWLyhw8uN4OehV8k63K-181" value="" style="rounded=1;whiteSpace=wrap;html=1;arcSize=4;" vertex="1" parent="1">
          <mxGeometry x="2530.13" y="1189" width="347" height="401" as="geometry" />
        </mxCell>
        <mxCell id="VuWLyhw8uN4OehV8k63K-182" value="" style="rounded=1;whiteSpace=wrap;html=1;arcSize=4;" vertex="1" parent="1">
          <mxGeometry x="2897.27" y="1189" width="347" height="261" as="geometry" />
        </mxCell>
        <mxCell id="VuWLyhw8uN4OehV8k63K-183" value="" style="rounded=1;whiteSpace=wrap;html=1;arcSize=4;" vertex="1" parent="1">
          <mxGeometry x="2897.27" y="1460" width="347" height="130" as="geometry" />
        </mxCell>
        <mxCell id="VuWLyhw8uN4OehV8k63K-184" value="Описание" style="rounded=0;whiteSpace=wrap;html=1;" vertex="1" parent="1">
          <mxGeometry x="2537.13" y="1199" width="90" height="30" as="geometry" />
        </mxCell>
        <mxCell id="VuWLyhw8uN4OehV8k63K-185" value="Решения" style="rounded=0;whiteSpace=wrap;html=1;" vertex="1" parent="1">
          <mxGeometry x="2634.02" y="1199" width="90" height="30" as="geometry" />
        </mxCell>
        <mxCell id="VuWLyhw8uN4OehV8k63K-186" value="Описание задачи" style="rounded=1;whiteSpace=wrap;html=1;arcSize=4;" vertex="1" parent="1">
          <mxGeometry x="2530.13" y="1235" width="347" height="355" as="geometry" />
        </mxCell>
        <mxCell id="VuWLyhw8uN4OehV8k63K-187" value="Решение" style="rounded=0;whiteSpace=wrap;html=1;" vertex="1" parent="1">
          <mxGeometry x="2907.57" y="1199" width="90" height="30" as="geometry" />
        </mxCell>
        <mxCell id="VuWLyhw8uN4OehV8k63K-188" value="Программный код" style="rounded=1;whiteSpace=wrap;html=1;arcSize=4;" vertex="1" parent="1">
          <mxGeometry x="2897.27" y="1235" width="347" height="215" as="geometry" />
        </mxCell>
        <mxCell id="VuWLyhw8uN4OehV8k63K-189" value="&lt;b&gt;=&lt;/b&gt;" style="text;html=1;align=center;verticalAlign=middle;whiteSpace=wrap;rounded=0;" vertex="1" parent="1">
          <mxGeometry x="2857.13" y="1356" width="60" height="30" as="geometry" />
        </mxCell>
        <mxCell id="VuWLyhw8uN4OehV8k63K-190" value="&lt;b&gt;=&lt;/b&gt;" style="text;html=1;align=center;verticalAlign=middle;whiteSpace=wrap;rounded=0;" vertex="1" parent="1">
          <mxGeometry x="3040.77" y="1441" width="60" height="30" as="geometry" />
        </mxCell>
        <mxCell id="VuWLyhw8uN4OehV8k63K-191" value="" style="rounded=1;whiteSpace=wrap;html=1;" vertex="1" parent="1">
          <mxGeometry x="2902.5" y="1471" width="40" height="20" as="geometry" />
        </mxCell>
        <mxCell id="VuWLyhw8uN4OehV8k63K-192" value="" style="rounded=1;whiteSpace=wrap;html=1;" vertex="1" parent="1">
          <mxGeometry x="2957.57" y="1471" width="40" height="20" as="geometry" />
        </mxCell>
        <mxCell id="VuWLyhw8uN4OehV8k63K-193" value="" style="rounded=1;whiteSpace=wrap;html=1;" vertex="1" parent="1">
          <mxGeometry x="3007.13" y="1471" width="40" height="20" as="geometry" />
        </mxCell>
        <mxCell id="VuWLyhw8uN4OehV8k63K-194" value="" style="rounded=1;whiteSpace=wrap;html=1;" vertex="1" parent="1">
          <mxGeometry x="3060.77" y="1471" width="40" height="20" as="geometry" />
        </mxCell>
        <mxCell id="VuWLyhw8uN4OehV8k63K-195" value="" style="rounded=1;whiteSpace=wrap;html=1;" vertex="1" parent="1">
          <mxGeometry x="3117.28" y="1471" width="40" height="20" as="geometry" />
        </mxCell>
        <mxCell id="VuWLyhw8uN4OehV8k63K-196" value="&lt;span style=&quot;background-color: rgb(207, 207, 207);&quot;&gt;Метрики по результатам решения задачи&lt;/span&gt;" style="text;html=1;align=center;verticalAlign=middle;whiteSpace=wrap;rounded=0;strokeOpacity=70;fillOpacity=70;" vertex="1" parent="1">
          <mxGeometry x="2897.13" y="1466" width="260" height="30" as="geometry" />
        </mxCell>
        <mxCell id="VuWLyhw8uN4OehV8k63K-197" value="Результаты тестирования и консольный вывод" style="rounded=1;whiteSpace=wrap;html=1;" vertex="1" parent="1">
          <mxGeometry x="2902.13" y="1496" width="335" height="84" as="geometry" />
        </mxCell>
        <mxCell id="VuWLyhw8uN4OehV8k63K-198" value="&lt;font style=&quot;font-size: 40px;&quot;&gt;Playground&lt;/font&gt;" style="text;html=1;align=center;verticalAlign=middle;whiteSpace=wrap;rounded=0;" vertex="1" parent="1">
          <mxGeometry x="3280" y="966.53" width="330" height="90" as="geometry" />
        </mxCell>
        <mxCell id="VuWLyhw8uN4OehV8k63K-199" value="Данные" style="swimlane;fontStyle=0;childLayout=stackLayout;horizontal=1;startSize=30;horizontalStack=0;resizeParent=1;resizeParentMax=0;resizeLast=0;collapsible=1;marginBottom=0;whiteSpace=wrap;html=1;" vertex="1" parent="1">
          <mxGeometry x="3800" y="975" width="250" height="100" as="geometry" />
        </mxCell>
        <mxCell id="VuWLyhw8uN4OehV8k63K-200" value="Информация об авторизованном пользователе" style="text;strokeColor=none;fillColor=none;align=left;verticalAlign=middle;spacingLeft=4;spacingRight=4;overflow=hidden;points=[[0,0.5],[1,0.5]];portConstraint=eastwest;rotatable=0;whiteSpace=wrap;html=1;" vertex="1" parent="VuWLyhw8uN4OehV8k63K-199">
          <mxGeometry y="30" width="250" height="40" as="geometry" />
        </mxCell>
        <mxCell id="VuWLyhw8uN4OehV8k63K-228" value="Доступные языки" style="text;strokeColor=none;fillColor=none;align=left;verticalAlign=middle;spacingLeft=4;spacingRight=4;overflow=hidden;points=[[0,0.5],[1,0.5]];portConstraint=eastwest;rotatable=0;whiteSpace=wrap;html=1;" vertex="1" parent="VuWLyhw8uN4OehV8k63K-199">
          <mxGeometry y="70" width="250" height="30" as="geometry" />
        </mxCell>
        <mxCell id="VuWLyhw8uN4OehV8k63K-201" value="" style="rounded=0;whiteSpace=wrap;html=1;movable=1;resizable=1;rotatable=1;deletable=1;editable=1;locked=0;connectable=1;container=0;" vertex="1" parent="1">
          <mxGeometry x="3337.13" y="1103.28" width="739.4000000000002" height="500" as="geometry" />
        </mxCell>
        <mxCell id="VuWLyhw8uN4OehV8k63K-202" value="" style="rounded=0;whiteSpace=wrap;html=1;movable=1;resizable=1;rotatable=1;deletable=1;editable=1;locked=0;connectable=1;container=0;" vertex="1" parent="1">
          <mxGeometry x="3337.13" y="1103.28" width="739.1391273668119" height="72.46376811594203" as="geometry" />
        </mxCell>
        <mxCell id="VuWLyhw8uN4OehV8k63K-204" value="&lt;font style=&quot;font-size: 30px;&quot;&gt;&amp;lt;--&lt;/font&gt;" style="rounded=1;whiteSpace=wrap;html=1;movable=1;resizable=1;rotatable=1;deletable=1;editable=1;locked=0;connectable=1;container=0;" vertex="1" parent="1">
          <mxGeometry x="3347.13" y="1115.42" width="60" height="37.86" as="geometry" />
        </mxCell>
        <mxCell id="VuWLyhw8uN4OehV8k63K-205" value="&lt;span style=&quot;font-size: 16px;&quot;&gt;Выбранный язык&lt;/span&gt;" style="rounded=1;whiteSpace=wrap;html=1;movable=1;resizable=1;rotatable=1;deletable=1;editable=1;locked=0;connectable=1;container=0;" vertex="1" parent="1">
          <mxGeometry x="3907.13" y="1123.16" width="144.42" height="35.12" as="geometry" />
        </mxCell>
        <mxCell id="VuWLyhw8uN4OehV8k63K-206" value="&lt;span style=&quot;font-size: 16px;&quot;&gt;Выполнить&lt;/span&gt;" style="rounded=1;whiteSpace=wrap;html=1;movable=1;resizable=1;rotatable=1;deletable=1;editable=1;locked=0;connectable=1;container=0;" vertex="1" parent="1">
          <mxGeometry x="3722.5000000000005" y="1123.16" width="100.14" height="35.12" as="geometry" />
        </mxCell>
        <mxCell id="VuWLyhw8uN4OehV8k63K-207" value="&lt;span style=&quot;font-size: 16px;&quot;&gt;О&lt;/span&gt;&lt;span style=&quot;font-size: 16px; background-color: transparent; color: light-dark(rgb(0, 0, 0), rgb(255, 255, 255));&quot;&gt;флайн&lt;/span&gt;" style="rounded=1;whiteSpace=wrap;html=1;movable=1;resizable=1;rotatable=1;deletable=1;editable=1;locked=0;connectable=1;container=0;" vertex="1" parent="1">
          <mxGeometry x="3617.13" y="1123.16" width="100.14" height="35.12" as="geometry" />
        </mxCell>
        <mxCell id="VuWLyhw8uN4OehV8k63K-208" value="Программный код" style="rounded=1;whiteSpace=wrap;html=1;arcSize=4;" vertex="1" parent="1">
          <mxGeometry x="3350.13" y="1192.28" width="347" height="397" as="geometry" />
        </mxCell>
        <mxCell id="VuWLyhw8uN4OehV8k63K-209" value="консольный вывод" style="rounded=1;whiteSpace=wrap;html=1;arcSize=4;" vertex="1" parent="1">
          <mxGeometry x="3717.27" y="1192.28" width="347" height="397" as="geometry" />
        </mxCell>
        <mxCell id="VuWLyhw8uN4OehV8k63K-216" value="&lt;b&gt;=&lt;/b&gt;" style="text;html=1;align=center;verticalAlign=middle;whiteSpace=wrap;rounded=0;" vertex="1" parent="1">
          <mxGeometry x="3677.13" y="1359.28" width="60" height="30" as="geometry" />
        </mxCell>
        <mxCell id="VuWLyhw8uN4OehV8k63K-229" value="&lt;font style=&quot;font-size: 40px;&quot;&gt;Создание задачи&lt;/font&gt;" style="text;html=1;align=center;verticalAlign=middle;whiteSpace=wrap;rounded=0;" vertex="1" parent="1">
          <mxGeometry x="1702.57" y="1780" width="330" height="90" as="geometry" />
        </mxCell>
        <mxCell id="VuWLyhw8uN4OehV8k63K-235" value="" style="rounded=0;whiteSpace=wrap;html=1;movable=1;resizable=1;rotatable=1;deletable=1;editable=1;locked=0;connectable=1;container=0;" vertex="1" parent="1">
          <mxGeometry x="1709.7" y="1920" width="739.4" height="920" as="geometry" />
        </mxCell>
        <mxCell id="VuWLyhw8uN4OehV8k63K-237" value="&lt;font style=&quot;font-size: 16px;&quot;&gt;Название&lt;/font&gt;" style="rounded=1;whiteSpace=wrap;html=1;movable=1;resizable=1;rotatable=1;deletable=1;editable=1;locked=0;connectable=1;container=0;" vertex="1" parent="1">
          <mxGeometry x="1722.57" y="2020" width="210" height="30" as="geometry" />
        </mxCell>
        <mxCell id="VuWLyhw8uN4OehV8k63K-239" value="&lt;span style=&quot;font-size: 16px;&quot;&gt;Выбранный язык&lt;/span&gt;" style="rounded=1;whiteSpace=wrap;html=1;movable=1;resizable=1;rotatable=1;deletable=1;editable=1;locked=0;connectable=1;container=0;" vertex="1" parent="1">
          <mxGeometry x="1732.31" y="2420" width="221.95" height="35.12" as="geometry" />
        </mxCell>
        <object label="Данные" id="VuWLyhw8uN4OehV8k63K-259">
          <mxCell style="swimlane;fontStyle=0;childLayout=stackLayout;horizontal=1;startSize=30;horizontalStack=0;resizeParent=1;resizeParentMax=0;resizeLast=0;collapsible=1;marginBottom=0;whiteSpace=wrap;html=1;" vertex="1" parent="1">
            <mxGeometry x="2120.06" y="1740" width="279" height="150" as="geometry">
              <mxRectangle x="2170" y="860" width="80" height="30" as="alternateBounds" />
            </mxGeometry>
          </mxCell>
        </object>
        <mxCell id="VuWLyhw8uN4OehV8k63K-260" value="Пользователь" style="text;strokeColor=none;fillColor=none;align=left;verticalAlign=middle;spacingLeft=4;spacingRight=4;overflow=hidden;points=[[0,0.5],[1,0.5]];portConstraint=eastwest;rotatable=0;whiteSpace=wrap;html=1;" vertex="1" parent="VuWLyhw8uN4OehV8k63K-259">
          <mxGeometry y="30" width="279" height="30" as="geometry" />
        </mxCell>
        <mxCell id="VuWLyhw8uN4OehV8k63K-261" value="Теги, языки, сложность, статусы" style="text;strokeColor=none;fillColor=none;align=left;verticalAlign=middle;spacingLeft=4;spacingRight=4;overflow=hidden;points=[[0,0.5],[1,0.5]];portConstraint=eastwest;rotatable=0;whiteSpace=wrap;html=1;" vertex="1" parent="VuWLyhw8uN4OehV8k63K-259">
          <mxGeometry y="60" width="279" height="30" as="geometry" />
        </mxCell>
        <mxCell id="VuWLyhw8uN4OehV8k63K-286" value="Информация о задаче: название, теги, состояние, описание, начальное решение, полное решение, доп код, тесткейсы" style="text;strokeColor=none;fillColor=none;align=left;verticalAlign=middle;spacingLeft=4;spacingRight=4;overflow=hidden;points=[[0,0.5],[1,0.5]];portConstraint=eastwest;rotatable=0;whiteSpace=wrap;html=1;" vertex="1" parent="VuWLyhw8uN4OehV8k63K-259">
          <mxGeometry y="90" width="279" height="60" as="geometry" />
        </mxCell>
        <mxCell id="VuWLyhw8uN4OehV8k63K-264" value="&lt;font style=&quot;font-size: 16px;&quot;&gt;Теги&lt;/font&gt;" style="rounded=1;whiteSpace=wrap;html=1;movable=1;resizable=1;rotatable=1;deletable=1;editable=1;locked=0;connectable=1;container=0;" vertex="1" parent="1">
          <mxGeometry x="1723.57" y="2070" width="208.74" height="40" as="geometry" />
        </mxCell>
        <mxCell id="VuWLyhw8uN4OehV8k63K-266" value="Сохранить" style="rounded=1;whiteSpace=wrap;html=1;" vertex="1" parent="1">
          <mxGeometry x="1732.31" y="1940" width="120" height="60" as="geometry" />
        </mxCell>
        <mxCell id="VuWLyhw8uN4OehV8k63K-267" value="Опубликовать" style="rounded=1;whiteSpace=wrap;html=1;" vertex="1" parent="1">
          <mxGeometry x="1872.31" y="1940" width="120" height="60" as="geometry" />
        </mxCell>
        <mxCell id="VuWLyhw8uN4OehV8k63K-268" value="Сбросить" style="rounded=1;whiteSpace=wrap;html=1;" vertex="1" parent="1">
          <mxGeometry x="2012.31" y="1940" width="120" height="60" as="geometry" />
        </mxCell>
        <mxCell id="VuWLyhw8uN4OehV8k63K-269" value="Удалить" style="rounded=1;whiteSpace=wrap;html=1;" vertex="1" parent="1">
          <mxGeometry x="2142.31" y="1940" width="120" height="60" as="geometry" />
        </mxCell>
        <mxCell id="VuWLyhw8uN4OehV8k63K-270" value="" style="rounded=1;whiteSpace=wrap;html=1;arcSize=4;" vertex="1" parent="1">
          <mxGeometry x="1962.31" y="2010.06" width="468.5" height="401" as="geometry" />
        </mxCell>
        <mxCell id="VuWLyhw8uN4OehV8k63K-271" value="Описание" style="rounded=1;whiteSpace=wrap;html=1;" vertex="1" parent="1">
          <mxGeometry x="1976.31" y="2020" width="106" height="40" as="geometry" />
        </mxCell>
        <mxCell id="VuWLyhw8uN4OehV8k63K-272" value="Предпросмотр" style="rounded=1;whiteSpace=wrap;html=1;" vertex="1" parent="1">
          <mxGeometry x="2092.31" y="2020" width="106" height="40" as="geometry" />
        </mxCell>
        <mxCell id="VuWLyhw8uN4OehV8k63K-273" value="Помощь&lt;span style=&quot;white-space: pre;&quot;&gt;&#x9;&lt;/span&gt;" style="rounded=1;whiteSpace=wrap;html=1;" vertex="1" parent="1">
          <mxGeometry x="2204.31" y="2020" width="106" height="40" as="geometry" />
        </mxCell>
        <mxCell id="VuWLyhw8uN4OehV8k63K-274" value="Описание в формате Markdown" style="rounded=1;whiteSpace=wrap;html=1;arcSize=4;" vertex="1" parent="1">
          <mxGeometry x="1962.31" y="2070" width="468.5" height="340" as="geometry" />
        </mxCell>
        <mxCell id="VuWLyhw8uN4OehV8k63K-275" value="Провалидировать" style="rounded=1;whiteSpace=wrap;html=1;" vertex="1" parent="1">
          <mxGeometry x="2123.57" y="2420" width="129" height="30" as="geometry" />
        </mxCell>
        <mxCell id="VuWLyhw8uN4OehV8k63K-276" value="Вставить шаблон" style="rounded=1;whiteSpace=wrap;html=1;" vertex="1" parent="1">
          <mxGeometry x="2263.7200000000003" y="2420" width="129" height="30" as="geometry" />
        </mxCell>
        <mxCell id="VuWLyhw8uN4OehV8k63K-277" value="" style="rounded=1;whiteSpace=wrap;html=1;arcSize=4;" vertex="1" parent="1">
          <mxGeometry x="1729.81" y="2473" width="342.5" height="347" as="geometry" />
        </mxCell>
        <mxCell id="VuWLyhw8uN4OehV8k63K-278" value="" style="rounded=1;whiteSpace=wrap;html=1;arcSize=4;" vertex="1" parent="1">
          <mxGeometry x="2088.31" y="2473" width="342.5" height="347" as="geometry" />
        </mxCell>
        <mxCell id="VuWLyhw8uN4OehV8k63K-279" value="Код" style="rounded=1;whiteSpace=wrap;html=1;arcSize=4;" vertex="1" parent="1">
          <mxGeometry x="1729.81" y="2540" width="342.5" height="280" as="geometry" />
        </mxCell>
        <mxCell id="VuWLyhw8uN4OehV8k63K-280" value="Код" style="rounded=1;whiteSpace=wrap;html=1;arcSize=4;" vertex="1" parent="1">
          <mxGeometry x="2088.31" y="2540" width="342.5" height="280" as="geometry" />
        </mxCell>
        <mxCell id="VuWLyhw8uN4OehV8k63K-281" value="Тесткейсы" style="rounded=1;whiteSpace=wrap;html=1;" vertex="1" parent="1">
          <mxGeometry x="2104.57" y="2490" width="106" height="40" as="geometry" />
        </mxCell>
        <mxCell id="VuWLyhw8uN4OehV8k63K-282" value="Помощь&lt;span style=&quot;white-space: pre;&quot;&gt;&#x9;&lt;/span&gt;" style="rounded=1;whiteSpace=wrap;html=1;" vertex="1" parent="1">
          <mxGeometry x="2221.51" y="2490" width="106" height="40" as="geometry" />
        </mxCell>
        <mxCell id="VuWLyhw8uN4OehV8k63K-283" value="Полное решение" style="rounded=1;whiteSpace=wrap;html=1;" vertex="1" parent="1">
          <mxGeometry x="1744.31" y="2490" width="96" height="40" as="geometry" />
        </mxCell>
        <mxCell id="VuWLyhw8uN4OehV8k63K-284" value="Начальное решение" style="rounded=1;whiteSpace=wrap;html=1;" vertex="1" parent="1">
          <mxGeometry x="1851.4599999999998" y="2490" width="90.85" height="40" as="geometry" />
        </mxCell>
        <mxCell id="VuWLyhw8uN4OehV8k63K-285" value="Доп код" style="rounded=1;whiteSpace=wrap;html=1;" vertex="1" parent="1">
          <mxGeometry x="1962.31" y="2490" width="100" height="40" as="geometry" />
        </mxCell>
        <mxCell id="VuWLyhw8uN4OehV8k63K-289" value="Создание задачи&#xa;/problem/create/:hash" style="rounded=1;fillColor=#23445D;gradientColor=none;strokeColor=none;fontColor=#FFFFFF;fontStyle=1;fontFamily=Tahoma;fontSize=14" vertex="1" parent="1">
          <mxGeometry x="220" y="332.5" width="190" height="80" as="geometry" />
        </mxCell>
        <mxCell id="VuWLyhw8uN4OehV8k63K-290" value="" style="edgeStyle=elbowEdgeStyle;elbow=vertical;strokeWidth=2;rounded=0;exitX=0.5;exitY=1;exitDx=0;exitDy=0;" edge="1" parent="1" source="VuWLyhw8uN4OehV8k63K-6">
          <mxGeometry x="-23" y="135.5" width="100" height="100" as="geometry">
            <mxPoint x="642" y="267.88" as="sourcePoint" />
            <mxPoint x="320" y="335.88" as="targetPoint" />
            <Array as="points">
              <mxPoint x="590" y="300" />
            </Array>
          </mxGeometry>
        </mxCell>
      </root>
    </mxGraphModel>
  </diagram>
</mxfile>
